<svg xmlns="http://www.w3.org/2000/svg" xmlns:xlink="http://www.w3.org/1999/xlink" width="621.293" height="528.089" viewBox="0 0 621.293 528.089"><defs><style>.a{fill:#e0647b;opacity:0.86;}.b{fill:url(#c);}.c{filter:url(#d);}.d{filter:url(#a);}</style><filter id="a" x="0" y="0" width="584.795" height="528.089" filterUnits="userSpaceOnUse"><feOffset dy="3" input="SourceAlpha"/><feGaussianBlur stdDeviation="15" result="b"/><feFlood flood-color="#e0647b" flood-opacity="0.569"/><feComposite operator="in" in2="b"/><feComposite in="SourceGraphic"/></filter><linearGradient id="c" x1="1.009" y1="0.178" x2="0.5" y2="1" gradientUnits="objectBoundingBox"><stop offset="0" stop-color="#fcdd89"/><stop offset="1" stop-color="#e0647b"/></linearGradient><filter id="d" x="55.859" y="19.314" width="565.434" height="502.089" filterUnits="userSpaceOnUse"><feOffset dy="3" input="SourceAlpha"/><feGaussianBlur stdDeviation="15" result="e"/><feFlood flood-color="#e0647b" flood-opacity="0.569"/><feComposite operator="in" in2="e"/><feComposite in="SourceGraphic"/></filter></defs><g transform="translate(141 385.685)"><g class="d" transform="matrix(1, 0, 0, 1, -141, -385.69)"><path class="a" d="M114.739,1.415l201.87.609c62.92.19,114.081,50.659,114.271,112.726l.356,116.325c.19,62.067-44.481,126.988-107.4,126.8L115.783,342.5C52.863,342.313,1.7,291.844,1.513,229.777L1.157,113.452C.967,51.386,51.819,1.225,114.739,1.415Z" transform="matrix(0.98, -0.21, 0.21, 0.98, 43.58, 130.28)"/></g><g class="c" transform="matrix(1, 0, 0, 1, -141, -385.69)"><path class="b" d="M113.7-.492,315.642-.9C378.584-1.034,429.5,49.159,429.376,111.2l-.241,116.283c-.129,62.044-45.15,127.17-108.092,127.3l-208.05-14.311C50.051,340.6-.87,290.41-.741,228.366L-.5,112.083C-.371,50.038,50.758-.363,113.7-.492Z" transform="translate(150.97 62.31) rotate(8)"/></g></g></svg>