<svg xmlns="http://www.w3.org/2000/svg" width="48.116" height="48.116" viewBox="0 0 48.116 48.116"><defs><style>.a{fill:#0777d9;}.b{fill:#fff;stroke:#fff;stroke-width:0.4px;}</style></defs><g transform="translate(-35 -457)"><circle class="a" cx="24.058" cy="24.058" r="24.058" transform="translate(35 457)"/><g transform="translate(46.465 468.465)"><g transform="translate(0)"><path class="b" d="M307.808,78.627a1.1,1.1,0,0,0-1.876-.777.38.38,0,1,0,.538.538.338.338,0,1,1,.478.478.381.381,0,0,0,.538.538A1.092,1.092,0,0,0,307.808,78.627Z" transform="translate(-290.305 -73.595)"/><path class="b" d="M25.345,10.751a7.967,7.967,0,0,0,.577-2.895,7.667,7.667,0,0,0-1.986-5.275,3.366,3.366,0,0,1,1.372-.787.38.38,0,0,0-.212-.731,4.128,4.128,0,0,0-1.7.98A7.818,7.818,0,0,0,15.229.635,2.931,2.931,0,0,0,13.4,0h-.045a2.949,2.949,0,0,0-2.579,4.3,1.738,1.738,0,0,0-.692.109A18.568,18.568,0,0,0,4.422,8.227a4.137,4.137,0,0,0-1.171,3.126c.019.341.052.719.1,1.126A12.41,12.41,0,0,0,.853,15.706c-.394.755-.987,2.16-.531,3.093l.006.011a5.326,5.326,0,0,0,6.837,6.837l.012.006a1.8,1.8,0,0,0,.792.163,5.855,5.855,0,0,0,2.791-.967,12.647,12.647,0,0,0,2.736-2.22c.409.044.788.076,1.128.1q.118.007.235.007a4.136,4.136,0,0,0,2.891-1.177,18.949,18.949,0,0,0,2.589-3.288.38.38,0,1,0-.644-.406,18.163,18.163,0,0,1-2.478,3.15,3.373,3.373,0,0,1-2.55.954c-.179-.01-.369-.024-.569-.042q.152-.2.289-.391a4.014,4.014,0,0,0,.714-2.354,45.523,45.523,0,0,0-.653-6.6l-.014-.079A23.181,23.181,0,0,1,20.39,14.4a.988.988,0,0,1,.467,1.222c-.084.225-.191.471-.317.732a.381.381,0,1,0,.685.331c.136-.282.252-.549.345-.8a1.739,1.739,0,0,0,.109-.692,2.949,2.949,0,0,0,3.665-4.446ZM11.856,1.4a2.176,2.176,0,0,1,2.566-.389A8.15,8.15,0,0,0,11.4,3.832,2.18,2.18,0,0,1,11.856,1.4ZM2.1,23.875A4.556,4.556,0,0,1,.934,19.407a15.978,15.978,0,0,0,4.088,1.548c.28,1,.563,1.884.835,2.589a8.279,8.279,0,0,0,.715,1.5A4.556,4.556,0,0,1,2.1,23.875ZM13.761,21.1a11.417,11.417,0,0,1-3.39,3.1c-1.237.736-2.333,1.032-2.861.775a.277.277,0,0,1-.038-.023.388.388,0,0,0-.045-.037c-.312-.286-.935-1.452-1.726-4.347q0-.018-.01-.036-.135-.494-.275-1.055a.38.38,0,0,0-.738.185c.037.15.075.3.113.442-2.887-.837-3.58-1.387-3.741-1.571l-.008-.01a.275.275,0,0,1-.036-.052c-.405-.83.6-3.145,2.457-5.039.182,1.344.461,2.9.806,4.483a.381.381,0,0,0,.743-.163,45.531,45.531,0,0,1-1-6.437,3.374,3.374,0,0,1,.954-2.55,17.683,17.683,0,0,1,5.389-3.641.988.988,0,0,1,1.222.467,26.706,26.706,0,0,1,2.005,6.453.38.38,0,0,0,.02.1,39.494,39.494,0,0,1,.738,7.048A3.257,3.257,0,0,1,13.761,21.1Zm7.541-6.91a1.739,1.739,0,0,0-.56-.463,24.093,24.093,0,0,0-6.456-2.036,24.96,24.96,0,0,0-2.035-6.456,1.739,1.739,0,0,0-.463-.56A7.346,7.346,0,0,1,13.066,2.96a7.129,7.129,0,0,1,10.068-.117,7.129,7.129,0,0,1-.117,10.068A7.345,7.345,0,0,1,21.3,14.188Zm3.273-.068a2.18,2.18,0,0,1-2.43.456,8.192,8.192,0,0,0,2.822-3.019A2.176,2.176,0,0,1,24.575,14.121Z" transform="translate(0)"/><path class="b" d="M396.2,167.01a1.092,1.092,0,0,0-.777.322.38.38,0,1,0,.538.538.338.338,0,0,1,.478.478.38.38,0,0,0,.538.538,1.1,1.1,0,0,0-.777-1.876Z" transform="translate(-375.256 -158.537)"/><path class="b" d="M339.647,138.583a.629.629,0,0,1-.672-.672.38.38,0,1,0-.759-.052,1.39,1.39,0,0,0,1.387,1.486q.048,0,.1,0a.38.38,0,1,0-.052-.759Z" transform="translate(-321.053 -130.528)"/></g></g></g></svg>