<svg xmlns="http://www.w3.org/2000/svg" width="18.084" height="18.084" viewBox="0 0 18.084 18.084"><path d="M9.042,18.084a9.042,9.042,0,1,1,9.042-9.042A9.052,9.052,0,0,1,9.042,18.084Zm0-16.793a7.75,7.75,0,1,0,7.75,7.75A7.759,7.759,0,0,0,9.042,1.292Zm0,0"/><path d="M153.391,154.038a.643.643,0,0,1-.457-.189l-6.459-6.459a.646.646,0,0,1,.913-.913l6.459,6.459a.646.646,0,0,1-.457,1.1Zm0,0" transform="translate(-141.119 -141.121)"/><path d="M146.932,154.037a.646.646,0,0,1-.457-1.1l6.459-6.459a.646.646,0,0,1,.913.913l-6.459,6.459A.643.643,0,0,1,146.932,154.037Zm0,0" transform="translate(-141.119 -141.119)"/></svg>