<svg xmlns="http://www.w3.org/2000/svg" width="21.949" height="21.949" viewBox="0 0 21.949 21.949"><defs><style>.a{fill:#9f9f9f;}</style></defs><path class="a" d="M.643,21.949H16.162a.643.643,0,0,0,.643-.643V14.389l4.956-4.956a.643.643,0,0,0,0-.909L19.942,6.7a.643.643,0,0,0-.909,0L16.8,8.932V4.5A1.932,1.932,0,0,0,15.482,2.67,2.792,2.792,0,0,0,12.947,0a2.39,2.39,0,0,0-1.929,1.081A2.39,2.39,0,0,0,9.088,0,2.39,2.39,0,0,0,7.159,1.081,2.39,2.39,0,0,0,5.23,0,2.77,2.77,0,0,0,2.709,2.572h-.78A1.931,1.931,0,0,0,0,4.5v16.8A.643.643,0,0,0,.643,21.949Zm11.093-5.777.557.557-1.114.557ZM13.379,16l-.909-.909,5.2-5.2.909.909Zm6.109-7.928.909.909-.909.909-.909-.909ZM11.1,14.632a.687.687,0,0,0-.12.167L9.339,18.091H3.3a.643.643,0,0,0,0,1.286H9.64a1.546,1.546,0,0,0,.389-.077l3.642-1.821a.671.671,0,0,0,.163-.118l1.686-1.686v4.988H1.286V9.088H15.519v1.13ZM12.947,1.286c.548,0,1.028.545,1.209,1.286H11.737C11.918,1.831,12.4,1.286,12.947,1.286Zm-3.858,0c.548,0,1.028.545,1.209,1.286H7.879C8.06,1.831,8.541,1.286,9.088,1.286Zm-3.858,0c.548,0,1.028.545,1.209,1.286H4.021C4.2,1.831,4.683,1.286,5.23,1.286Zm-3.3,2.572h.78A3.534,3.534,0,0,0,3.352,5.42,2.372,2.372,0,0,0,5.23,6.43a.643.643,0,1,0,0-1.286c-.548,0-1.028-.545-1.209-1.286H6.567A3.535,3.535,0,0,0,7.21,5.42,2.372,2.372,0,0,0,9.088,6.43a.643.643,0,0,0,0-1.286c-.548,0-1.028-.545-1.209-1.286h2.547a3.535,3.535,0,0,0,.642,1.562A2.372,2.372,0,0,0,12.947,6.43a.643.643,0,0,0,0-1.286c-.548,0-1.028-.545-1.209-1.286h3.139a.644.644,0,0,1,.643.643V7.8H1.286V4.5A.644.644,0,0,1,1.929,3.858Zm0,0"/></svg>