<svg xmlns="http://www.w3.org/2000/svg" width="48.116" height="48.116" viewBox="0 0 48.116 48.116"><defs><style>.a{fill:#fe999d;}.b{fill:#fff;}</style></defs><g transform="translate(-35 -457)"><circle class="a" cx="24.058" cy="24.058" r="24.058" transform="translate(35 457)"/><g transform="translate(104 374)"><g transform="translate(0 48)"><g transform="translate(0 0)"><path class="b" d="M29.642,48H20.1a.5.5,0,0,0-.5.5V50.01H18.087a.5.5,0,0,0-.5.5V56.23l-3.635,1.818H.5a.5.5,0,0,0-.5.5V71.613a.5.5,0,0,0,.5.5H10.551a.5.5,0,0,0,.5-.5V70.2L16.5,71.1a.517.517,0,0,0,.083.007h7.536a2,2,0,0,0,1.73-1h1.787a.5.5,0,0,0,.5-.5V68.1h1.507a.5.5,0,0,0,.5-.5V48.5A.5.5,0,0,0,29.642,48ZM10.048,71.111H1V59.053h9.043ZM20.6,49H29.14V60a2,2,0,0,0-1-1.673V50.512a.5.5,0,0,0-.5-.5H20.6Zm-2.01,2.01H27.13v7.034h-1V53.526a.5.5,0,0,0-.5-.5.5.5,0,0,1-.5-.5.5.5,0,0,0-.5-.5H21.1a.5.5,0,0,0-.5.5.5.5,0,0,1-.5.5.5.5,0,0,0-.5.5v4.522h-1Zm6.531,2.929v4.105H20.6V53.943a1.515,1.515,0,0,0,.919-.919H24.2A1.515,1.515,0,0,0,25.12,53.943ZM27.13,69.1h-1a2,2,0,0,0-.34-1.118,2.01,2.01,0,0,0,1-3.014,1.968,1.968,0,0,0,.34-.161Zm0-8.039H25.12a.5.5,0,0,0,0,1h1a1,1,0,1,1,0,2.01h-2.01a.5.5,0,0,0,0,1h1a1,1,0,1,1,0,2.01h-2.01a.5.5,0,1,0,0,1h1a1,1,0,1,1,0,2.01H16.621l-5.568-.928V59.053h3.014A.5.5,0,0,0,14.292,59l3.292-1.646v1.2a.5.5,0,0,0,.5.5H27.13a1,1,0,1,1,0,2.01Zm1,6.029v-5.3a2,2,0,0,0,1-1.673v6.971Z" transform="translate(-60 -3)"/></g></g></g></g></svg>