<svg xmlns="http://www.w3.org/2000/svg" width="48.116" height="48.116" viewBox="0 0 48.116 48.116"><defs><style>.a{fill:#fcdd89;}.b{fill:#fff;}</style></defs><g transform="translate(-35 -457)"><circle class="a" cx="24.058" cy="24.058" r="24.058" transform="translate(35 457)"/><g transform="translate(45.731 466.012)"><g transform="translate(0 0)"><path class="b" d="M27.752,12.073a2.423,2.423,0,0,0-.845-1.665l-2.4-2.058V2.5a.813.813,0,0,0-.813-.813H20.44a.8.8,0,0,0-.8.813V4.167L15.522.66a2.427,2.427,0,0,0-3.173,0l-11.5,9.75a2.439,2.439,0,0,0-.264,3.441,2.465,2.465,0,0,0,2.676.711V27.007a.8.8,0,0,0,.8.813H23.693a.813.813,0,0,0,.813-.813V14.56a2.439,2.439,0,0,0,3.246-2.487Zm-6.5-8.758h1.637V6.955L21.254,5.561ZM17.2,26.194H10.573V19.677H17.2Zm5.693,0H18.814V18.875A.813.813,0,0,0,18,18.061H9.76a.8.8,0,0,0-.8.813v7.319H4.881V13.39l9.051-7.678,8.959,7.67V26.194Zm3.047-13.4a.813.813,0,0,1-1.147.088L14.464,4.026a.813.813,0,0,0-1.055,0L2.971,12.877a.813.813,0,0,1-1.062-1.232l11.5-9.75a.81.81,0,0,1,1.059,0l11.385,9.748A.814.814,0,0,1,25.938,12.789Z" transform="translate(-0.001 -0.068)"/></g><g transform="translate(10.584 9.752)"><path class="b" d="M201,179.938h-4.988a.8.8,0,0,0-.8.813v4.879a.8.8,0,0,0,.8.813H201a.813.813,0,0,0,.813-.813v-4.879A.813.813,0,0,0,201,179.938Zm-.8,4.879h-3.372v-3.253h3.372Z" transform="translate(-195.207 -179.938)"/></g><g transform="translate(13.934 21.246)"><ellipse class="b" cx="0.813" cy="0.813" rx="0.813" ry="0.813"/></g></g></g></svg>