<svg xmlns="http://www.w3.org/2000/svg" width="48.116" height="48.116" viewBox="0 0 48.116 48.116"><defs><style>.a{fill:#89acee;}.b{fill:#fff;}</style></defs><g transform="translate(-35 -457)"><circle class="a" cx="24.058" cy="24.058" r="24.058" transform="translate(35 457)"/><g transform="translate(44.982 467.613)"><g transform="translate(0)"><path class="b" d="M27.185,12.946A13.643,13.643,0,0,0,14.549,1.683V.8a.8.8,0,1,0-1.6,0v.88A13.757,13.757,0,0,0,.2,12.946a1.517,1.517,0,0,0-.2.748.8.8,0,0,0,.8.8.912.912,0,0,0,.9-.745c.007-.051.014-.1.021-.152a5.532,5.532,0,0,1,3.09-.708c1.959,0,3.07.584,3.21.833a.822.822,0,0,0,1.64.013,6.516,6.516,0,0,1,3.281-.823V24.178a3.209,3.209,0,1,0,6.419,0v-.8a.8.8,0,0,0-1.6,0v.8a1.6,1.6,0,1,1-3.209,0V12.915a6.2,6.2,0,0,1,3.173.81v.008a.822.822,0,0,0,1.64-.009c.14-.249,1.251-.833,3.21-.833a5.531,5.531,0,0,1,3.09.708c.007.047.014.094.02.141a.93.93,0,0,0,.9.756.8.8,0,0,0,.8-.8A1.517,1.517,0,0,0,27.185,12.946ZM8.191,11.918a8.407,8.407,0,0,0-3.377-.632,9.344,9.344,0,0,0-2.642.356A12.13,12.13,0,0,1,10.7,3.648C9.19,5.855,8.464,9.252,8.191,11.918Zm5.556-.632a12.133,12.133,0,0,0-3.938.59c.591-5.4,2.482-8.613,3.938-8.613,1.51,0,3.272,3.382,3.832,8.595A11.608,11.608,0,0,0,13.747,11.287Zm8.826,0a8.412,8.412,0,0,0-3.374.631c-.264-2.642-.958-6.058-2.429-8.268a12.084,12.084,0,0,1,8.448,7.994A9.345,9.345,0,0,0,22.573,11.287Z" transform="translate(0)"/></g></g></g></svg>