<svg xmlns="http://www.w3.org/2000/svg" width="18.606" height="18.606" viewBox="0 0 18.606 18.606"><g transform="translate(6.202 6.59)"><path d="M135.14,136.229a.775.775,0,0,0-1.1,0l-3.328,3.328-1.39-1.39a.775.775,0,0,0-1.1,1.1l1.938,1.938a.775.775,0,0,0,1.1,0l3.876-3.876A.775.775,0,0,0,135.14,136.229Z" transform="translate(-128.002 -136.002)"/></g><g transform="translate(0 0)"><path d="M17.831,8.528a.776.776,0,0,0-.775.775A7.752,7.752,0,1,1,14.8,3.841a.775.775,0,0,0,1.1-1.092,9.3,9.3,0,1,0,2.7,6.555A.776.776,0,0,0,17.831,8.528Z" transform="translate(0 0)"/></g></svg>