<svg xmlns="http://www.w3.org/2000/svg" width="48.116" height="48.116" viewBox="0 0 48.116 48.116"><defs><style>.a{fill:#309d30;}.b{fill:#fff;}</style></defs><g transform="translate(-35 -457)"><circle class="a" cx="24.058" cy="24.058" r="24.058" transform="translate(35 457)"/><g transform="translate(45 447.389)"><g transform="translate(0 34.242)"><path class="b" d="M28.6,262.357a2.435,2.435,0,0,0-1.768-1,1.752,1.752,0,0,0-1.424.532c-.079.084-.164.175-.254.274a2.423,2.423,0,0,0-1.446-.635,1.754,1.754,0,0,0-1.413.521,2.376,2.376,0,0,0-1.443-.526h-.01a1.742,1.742,0,0,0-1.284.537c-.524.555-1.38,1.528-2.541,2.892-2.409-.963-6.965-2.648-9.324-2.648H.426a.426.426,0,1,0,0,.852H7.7c3.056,0,10.485,3.2,10.56,3.228l.042.016a1.391,1.391,0,1,1-.829,2.657l-.014,0-4.648-1.28a.426.426,0,1,0-.226.821l4.641,1.278a2.251,2.251,0,0,0,1.7-.157,2.243,2.243,0,0,0,1.2-1.886l1.247-.131a.427.427,0,0,0,.283-.151c.031-.037,3.087-3.707,4.377-5.071a.914.914,0,0,1,.747-.267,1.585,1.585,0,0,1,1.133.642c.6.831-.144,1.739-.385,2-1.183,1.27-3.353,3.885-3.743,4.357l-8.446,4.223a.936.936,0,0,1-.783.025L6.5,270.064a.426.426,0,0,0-.165-.033H.426a.426.426,0,1,0,0,.852H6.247l7.976,3.358a1.8,1.8,0,0,0,1.494-.049l8.526-4.263a.426.426,0,0,0,.138-.11c.025-.03,2.509-3.038,3.767-4.388A2.367,2.367,0,0,0,28.6,262.357ZM19.028,265.8a2.234,2.234,0,0,0-.454-.206c-.084-.036-.339-.145-.722-.3,1.047-1.226,1.849-2.137,2.329-2.644a.9.9,0,0,1,.665-.27h.005a1.519,1.519,0,0,1,.869.3C20.932,263.561,19.888,264.784,19.028,265.8Zm2.082,1.069L20,266.988a2.262,2.262,0,0,0-.335-.619c.928-1.1,2.436-2.866,3.243-3.72a.915.915,0,0,1,.747-.267,1.573,1.573,0,0,1,.934.419C23.309,264.242,21.569,266.32,21.11,266.871Z" transform="translate(0 -261.356)"/></g><g transform="translate(6.816 20.611)"><g transform="translate(0 0)"><path class="b" d="M135.749,29.065a.43.43,0,0,0-.4-.276h-2.3V25.372a.426.426,0,0,0-.852,0v3.843a.426.426,0,0,0,.426.426h1.526l-6.07,4.932-6.07-4.932h1.526a.426.426,0,0,0,.426-.426V21.463H132.2v1.865a.426.426,0,0,0,.852,0V21.037a.426.426,0,0,0-.426-.426h-9.087a.426.426,0,0,0-.426.426v7.752h-2.3a.426.426,0,0,0-.269.757l7.27,5.907a.43.43,0,0,0,.537,0l7.27-5.907A.43.43,0,0,0,135.749,29.065Z" transform="translate(-120.385 -20.611)"/></g></g><g transform="translate(12.268 22.428)"><g transform="translate(0 0)"><path class="b" d="M220.735,56.743a.426.426,0,0,0,.426-.426v-.454a1.791,1.791,0,0,0-1.789-1.789h-.028v-.937a.426.426,0,1,0-.852,0v.947a2.016,2.016,0,0,0,.2,4.023h.454a1.164,1.164,0,1,1,0,2.329h-.681a.938.938,0,0,1-.937-.937.426.426,0,1,0-.852,0,1.791,1.791,0,0,0,1.789,1.789h.028v.937a.426.426,0,1,0,.852,0v-.947a2.016,2.016,0,0,0-.2-4.023h-.454a1.164,1.164,0,1,1,0-2.329h.682a.938.938,0,0,1,.937.937v.454A.426.426,0,0,0,220.735,56.743Z" transform="translate(-216.674 -52.711)"/></g></g></g></g></svg>