<svg xmlns="http://www.w3.org/2000/svg" width="48.116" height="48.116" viewBox="0 0 48.116 48.116"><defs><style>.a{fill:#ff9e17;}.b{fill:#fff;stroke:#fff;stroke-width:0.2px;}</style></defs><g transform="translate(-35 -457)"><circle class="a" cx="24.058" cy="24.058" r="24.058" transform="translate(35 457)"/><g transform="translate(45.419 468.077)"><g transform="translate(14.239 6.672)"><path class="b" d="M260.678,122.281l-.286-.94a2.042,2.042,0,0,0-3.867,0l-.286.94a5.282,5.282,0,0,0-.147,2.447,2.3,2.3,0,0,0,1.185,1.6l-.32,7.151a1.409,1.409,0,0,0,.356,1.1,1.554,1.554,0,0,0,2.2.1q.051-.047.1-.1a1.39,1.39,0,0,0,.356-1.066l-.322-7.182a2.3,2.3,0,0,0,1.184-1.6A5.281,5.281,0,0,0,260.678,122.281Zm-.729,2.292a1.411,1.411,0,0,1-.923,1.063.445.445,0,0,0-.288.436l.338,7.511a.515.515,0,0,1-.133.4.687.687,0,0,1-.967,0,.534.534,0,0,1-.131-.432l.336-7.482a.445.445,0,0,0-.288-.436,1.411,1.411,0,0,1-.923-1.063,4.388,4.388,0,0,1,.122-2.032l.286-.941a1.154,1.154,0,0,1,2.164,0l.286.941A4.394,4.394,0,0,1,259.949,124.573Z" transform="translate(-256.012 -119.955)"/></g><g transform="translate(7.564 6.674)"><path class="b" d="M140.449,120a.445.445,0,0,0-.445.445v3.82l-1.2,1.2a.445.445,0,0,0-.13.337l.389,7.786a.606.606,0,0,1-.168.453.626.626,0,0,1-.886,0l0,0a.606.606,0,0,1-.168-.453l.392-7.786a.445.445,0,0,0-.13-.337l-1.2-1.2v-3.82a.445.445,0,1,0-.89,0v4a.445.445,0,0,0,.13.315l1.2,1.2-.38,7.59a1.5,1.5,0,0,0,3,.146q0-.073,0-.146l-.38-7.59,1.2-1.2a.445.445,0,0,0,.13-.315v-4A.445.445,0,0,0,140.449,120Z" transform="translate(-136 -120)"/></g><g transform="translate(8.899 6.674)"><path class="b" d="M160.445,120a.445.445,0,0,0-.445.445V124a.445.445,0,0,0,.89,0v-3.56A.445.445,0,0,0,160.445,120Z" transform="translate(-160 -120)"/></g><g transform="translate(10.234 6.674)"><path class="b" d="M184.445,120a.445.445,0,0,0-.445.445V124a.445.445,0,1,0,.89,0v-3.56A.445.445,0,0,0,184.445,120Z" transform="translate(-184 -120)"/></g><path class="b" d="M13.348,0A13.348,13.348,0,1,0,26.7,13.348,13.348,13.348,0,0,0,13.348,0Zm0,25.806A12.458,12.458,0,1,1,25.806,13.348,12.458,12.458,0,0,1,13.348,25.806Z"/><g transform="translate(11.908 21.299)"><path class="b" d="M217,383.35a.445.445,0,0,0-.486-.4l-.017,0h0a8.169,8.169,0,0,1-1.886,0,.445.445,0,0,0-.1.884,9.016,9.016,0,0,0,2.091,0A.445.445,0,0,0,217,383.35Z" transform="translate(-214.113 -382.949)"/></g><g transform="translate(18.871 7.456)"><path class="b" d="M340.58,134.212a.445.445,0,0,0-.627-.055l0,0a.445.445,0,0,0-.053.627,8.009,8.009,0,0,1-.472,10.833.445.445,0,1,0,.628.63A8.9,8.9,0,0,0,340.58,134.212Z" transform="translate(-339.295 -134.053)"/></g><g transform="translate(9.921 4.451)"><path class="b" d="M186.354,105.743h0Z" transform="translate(-185.909 -104.313)"/><path class="b" d="M183.908,80.274a8.977,8.977,0,0,0-5.237.322.444.444,0,1,0,.312.832,8.083,8.083,0,0,1,4.716-.289.445.445,0,0,0,.209-.865Z" transform="translate(-178.382 -80.027)"/></g><g transform="translate(4.449 7.925)"><path class="b" d="M83.215,153.562a8.008,8.008,0,0,1-.8-10.362.445.445,0,1,0-.711-.535l-.008.011a8.9,8.9,0,0,0,.893,11.516.446.446,0,0,0,.63-.63Z" transform="translate(-79.989 -142.488)"/></g></g></g></svg>