<svg xmlns="http://www.w3.org/2000/svg" width="48.116" height="48.116" viewBox="0 0 48.116 48.116"><defs><style>.a{fill:#309d30;}.b{fill:#fff;}</style></defs><g transform="translate(-35 -457)"><circle class="a" cx="24.058" cy="24.058" r="24.058" transform="translate(35 457)"/><g transform="translate(45 416.795)"><g transform="translate(0 53)"><g transform="translate(0 0)"><path class="b" d="M28.853,61.622l-.654-.692L25.9,54.744A2.692,2.692,0,0,0,23.4,53H7.006A2.682,2.682,0,0,0,4.5,54.744L2.237,60.853l-.942.872A3.683,3.683,0,0,0,0,64.526v9.013a2.68,2.68,0,0,0,2.679,2.667H4.372a2.68,2.68,0,0,0,2.679-2.667V72.231h15.9v1.308a2.68,2.68,0,0,0,2.679,2.667h1.692A2.68,2.68,0,0,0,30,73.538v-9.25A3.717,3.717,0,0,0,28.853,61.622ZM5.705,55.179a1.386,1.386,0,0,1,1.3-.9H23.4a1.4,1.4,0,0,1,1.3.9l2,5.385H25.212a4.4,4.4,0,0,0-8.7,0H3.705Zm18.2,5.385h-6.1a3.114,3.114,0,0,1,6.1,0ZM5.769,73.538a1.394,1.394,0,0,1-1.4,1.385H2.679a1.394,1.394,0,0,1-1.4-1.385V71.859a2.6,2.6,0,0,0,1.4.372h3.09Zm22.949,0a1.394,1.394,0,0,1-1.4,1.385H25.628a1.4,1.4,0,0,1-1.4-1.385V72.231h3.09a2.6,2.6,0,0,0,1.4-.372v1.679Zm-1.4-2.59H2.679a1.383,1.383,0,0,1-1.4-1.372V64.526a2.407,2.407,0,0,1,.853-1.833l.026-.026.872-.821H27.308l.615.66c.006.013.026.019.032.032a2.416,2.416,0,0,1,.756,1.75v5.288h.006A1.387,1.387,0,0,1,27.321,70.949Z" transform="translate(0 -53)"/></g></g><g transform="translate(3.013 64.41)"><path class="b" d="M52.449,231H47.641a.643.643,0,0,0-.641.641v3.333a.643.643,0,0,0,.641.641h4.808a.643.643,0,0,0,.641-.641v-3.333A.643.643,0,0,0,52.449,231Zm-.641,3.333H48.282v-2.051h3.526Z" transform="translate(-47 -231)"/></g><g transform="translate(20.897 64.41)"><path class="b" d="M331.449,231h-4.808a.643.643,0,0,0-.641.641v3.333a.643.643,0,0,0,.641.641h4.808a.643.643,0,0,0,.641-.641v-3.333A.643.643,0,0,0,331.449,231Zm-.641,3.333h-3.526v-2.051h3.526Z" transform="translate(-326 -231)"/></g><g transform="translate(11.263 67.103)"><path class="b" d="M182.533,273h-6.192a.641.641,0,0,0,0,1.282h6.192a.641.641,0,0,0,0-1.282Z" transform="translate(-175.7 -273)"/></g><g transform="translate(11.263 65.115)"><g transform="translate(0 0)"><path class="b" d="M182.533,242h-6.192a.641.641,0,0,0,0,1.282h6.192a.641.641,0,1,0,0-1.282Z" transform="translate(-175.7 -242)"/></g></g></g></g></svg>